<?xml version="1.0" encoding="UTF-8"?>
<!-- Generator: Adobe Illustrator 18.1.0, SVG Export Plug-In . SVG Version: 6.00 Build 0)  -->
<svg version="1.1" id="Layer_21" xmlns="http://www.w3.org/2000/svg" xmlns:xlink="http://www.w3.org/1999/xlink" x="0px" y="0px" viewBox="-1209 2586 20 14" enable-background="new -1209 2586 20 14" xml:space="preserve">
<title/>
<path d="M-1189.2,2588.8c-0.1-1.4-1.2-2.4-2.5-2.5c-1.6-0.1-3.9-0.3-6.8-0.3c-3.5,0-6.1,0.1-7.7,0.3c-1.4,0.1-2.4,1.2-2.6,2.5  c-0.1,1.1-0.2,2.5-0.2,4.2c0,1.7,0.1,3.1,0.2,4.1c0.1,1.4,1.2,2.4,2.6,2.5c1.7,0.1,4.3,0.3,7.7,0.3c2.9,0,5.2-0.1,6.8-0.3  c1.4-0.1,2.4-1.2,2.5-2.5c0.1-1.1,0.2-2.5,0.2-4.2S-1189.1,2589.9-1189.2,2588.8z M-1201.2,2595.9v-5.9l5.8,2.9L-1201.2,2595.9z"/>
</svg>