<?xml version="1.0" encoding="UTF-8"?>
<!-- Generator: Adobe Illustrator 18.1.0, SVG Export Plug-In . SVG Version: 6.00 Build 0)  -->
<svg version="1.1" id="Layer_1" xmlns="http://www.w3.org/2000/svg" xmlns:xlink="http://www.w3.org/1999/xlink" x="0px" y="0px" viewBox="-1159 2534 128 118" enable-background="new -1159 2534 128 118" xml:space="preserve">
<g>
	<path d="M-1031,2593c0-32.5-26.5-59-59-59c-28.8,0-52.8,20.7-58,48h-11l16.8,24l16.8-24h-10.4c5-20.6,23.6-36,45.7-36   c25.9,0,47,21.1,47,47c0,24-18.1,43.9-41.4,46.6c-0.5,0.1-2.3,0.2-2.7,0.2c-0.4,0-2.2,0.1-2.7,0.1c-12.5,0.1-24.4-4.8-33.4-13.8   c-2.3-2.3-6.1-2.3-8.5,0c-2.3,2.3-2.3,6.1,0,8.5c11.2,11.2,26,17.3,41.6,17.3c1,0,2,0,3-0.1c0.1,0,2.1-0.1,3-0.2   c0.2,0,2-0.2,2.1-0.3C-1053.2,2647.5-1031,2622.8-1031,2593z"/>
	<path d="M-1090,2558c-3.3,0-6,2.7-6,6v29c0,3.3,2.7,6,6,6h29c3.3,0,6-2.7,6-6c0-3.3-2.7-6-6-6h-23v-23   C-1084,2560.7-1086.7,2558-1090,2558z"/>
</g>
</svg>