<?xml version="1.0" encoding="UTF-8"?>
<!-- Generator: Adobe Illustrator 18.1.0, SVG Export Plug-In . SVG Version: 6.00 Build 0)  -->
<svg version="1.1" id="Layer_1" xmlns="http://www.w3.org/2000/svg" xmlns:xlink="http://www.w3.org/1999/xlink" x="0px" y="0px" viewBox="0 0 17.5 17.6" enable-background="new 0 0 17.5 17.6" xml:space="preserve">
<g>
	<defs>
		<path id="SVGID_1_" d="M3.7,11.3c-1-1-1.6-2.3-1.6-3.8c0-1.5,0.6-2.8,1.6-3.8c1-1,2.3-1.6,3.8-1.6c1.5,0,2.8,0.6,3.8,1.6    c1,1,1.6,2.3,1.6,3.8c0,1.5-0.6,2.8-1.6,3.8c-1,1-2.3,1.6-3.8,1.6C6,12.9,4.6,12.3,3.7,11.3z M13.7,11.7c0.8-1.2,1.3-2.7,1.3-4.2    c0-2.1-0.8-3.9-2.2-5.3C11.4,0.8,9.6,0,7.5,0C5.4,0,3.5,0.8,2.2,2.2C0.8,3.5,0,5.4,0,7.5c0,2.1,0.8,3.9,2.2,5.3    C3.5,14.1,5.4,15,7.5,15c1.5,0,2.9-0.4,4.1-1.2l3.3,3.3c0.6,0.6,1.8,0.8,2.4,0.2c0.6-0.6,0.3-1.7-0.3-2.3L13.7,11.7z"/>
	</defs>
	<use xlink:href="#SVGID_1_" overflow="visible" fill-rule="evenodd" clip-rule="evenodd" fill="#FFFFFF"/>
	<clipPath id="SVGID_2_">
		<use xlink:href="#SVGID_1_" overflow="visible"/>
	</clipPath>
	<rect x="-5" y="-5" clip-path="url(#SVGID_2_)" fill="#ffffff" width="27.5" height="27.6"/>
</g>
</svg>